{
   "accessors" : [
      {
         "bufferView" : 0,
         "componentType" : 5126,
         "count" : 196,
         "max" : [ 2.607393503189087, 2.02918267250061, 2.140913724899292 ],
         "min" : [ -2.548639059066772, -2.02918267250061, -2.331179618835449 ],
         "type" : "VEC3"
      },
      {
         "bufferView" : 1,
         "componentType" : 5126,
         "count" : 196,
         "type" : "VEC3"
      },
      {
         "bufferView" : 2,
         "componentType" : 5126,
         "count" : 196,
         "type" : "VEC2"
      },
      {
         "bufferView" : 3,
         "componentType" : 5123,
         "count" : 552,
         "type" : "SCALAR"
      }
   ],
   "asset" : {
      "extras" : {
         "GOOGLE_processor_version" : 310838669
      },
      "generator" : "Khronos glTF Blender I/O v1.1.46",
      "version" : "2.0"
   },
   "bufferViews" : [
      {
         "buffer" : 0,
         "byteLength" : 2352,
         "byteOffset" : 0
      },
      {
         "buffer" : 0,
         "byteLength" : 2352,
         "byteOffset" : 2352
      },
      {
         "buffer" : 0,
         "byteLength" : 1568,
         "byteOffset" : 4704
      },
      {
         "buffer" : 0,
         "byteLength" : 1104,
         "byteOffset" : 6272
      },
      {
         "buffer" : 0,
         "byteLength" : 1,
         "byteOffset" : 0
      }
   ],
   "buffers" : [
      {
         "byteLength" : 7380,
         "uri" : "tieExp.bin"
      }
   ],
   "cameras" : [
      {
         "perspective" : {
            "yfov" : 1.43116998663535,
            "znear" : 0.1000000014901161
         },
         "type" : "perspective"
      }
   ],
   "extensions" : {
      "KHR_lights_punctual" : {
         "lights" : [
            {
               "color" : [ 1, 0.9333333333333333, 0.8666666666666667 ],
               "intensity" : 0.25,
               "name" : "headLight",
               "type" : "directional"
            },
            {
               "color" : [ 1, 0.9333333333333333, 0.8666666666666667 ],
               "intensity" : 0.324999988079071,
               "name" : "keyLight",
               "type" : "directional"
            }
         ]
      }
   },
   "extensionsUsed" : [ "GOOGLE_backgrounds", "GOOGLE_camera_settings", "KHR_lights_punctual" ],
   "extras" : {
      "GOOGLE_initial_camera_motion" : {
         "motionPath" : "FULL_ROTATION"
      },
      "GOOGLE_lighting_rig" : {
         "disableShadows" : false
      }
   },
   "images" : [
      {
         "uri" : "image0.png"
      }
   ],
   "materials" : [
      {
         "alphaCutoff" : 0.5,
         "alphaMode" : "OPAQUE",
         "doubleSided" : true,
         "emissiveFactor" : [ 0, 0, 0 ],
         "name" : "Mat_Tie",
         "pbrMetallicRoughness" : {
            "baseColorTexture" : {
               "index" : 0,
               "texCoord" : 0
            },
            "metallicFactor" : 0,
            "roughnessFactor" : 1
         }
      }
   ],
   "meshes" : [
      {
         "name" : "Sphere.001",
         "primitives" : [
            {
               "attributes" : {
                  "NORMAL" : 1,
                  "POSITION" : 0,
                  "TEXCOORD_0" : 2
               },
               "indices" : 3,
               "material" : 0
            }
         ]
      }
   ],
   "nodes" : [
      {
         "mesh" : 0,
         "name" : "Sphere",
         "rotation" : [ 0.7071068286895752, -0.7071067690849304, 0, 5.338507946817117e-08 ]
      },
      {
         "children" : [ 2 ]
      },
      {
         "children" : [ 3 ],
         "extras" : {
            "isTransformNode" : 1
         },
         "translation" : [ -0.01289007607038363, -0.04226730060785534, 0.09308684478201061 ]
      },
      {
         "children" : [ 0 ],
         "translation" : [ 0.01289007607038363, 0.04226730060785534, -0.09308684478201061 ]
      },
      {
         "camera" : 0,
         "children" : [ 5 ],
         "rotation" : [
            -0.1176688855372634,
            -0.162160110319587,
            -0.01947995775144281,
            0.9795298174346506
         ],
         "translation" : [ -1.703613671975742, 1.236658505892117, 5.059080549279123 ]
      },
      {
         "extensions" : {
            "KHR_lights_punctual" : {
               "light" : 0
            }
         },
         "extras" : {
            "isHeadLight" : 1
         },
         "name" : "headLightNode",
         "translation" : [ -4.274431126501673, 2.137215563250837, 2.137215563250837 ]
      },
      {
         "extensions" : {
            "KHR_lights_punctual" : {
               "light" : 1
            }
         },
         "extras" : {
            "isKeyLight" : 1
         },
         "name" : "keyLightNode",
         "rotation" : [ -0.7505326882858236, -0.3752663441429118, 0, 0.5439447166468927 ],
         "scale" : [ 0, 0, 4.31717543776669 ],
         "translation" : [ -4.315721206807841, 8.437281234253943, -3.710261333094075 ]
      }
   ],
   "scene" : 0,
   "scenes" : [
      {
         "extensions" : {
            "GOOGLE_backgrounds" : {
               "color" : [ 1, 0.9215686274509803, 0.2313725490196079 ]
            },
            "GOOGLE_camera_settings" : {
               "mode" : "movableOrbit",
               "pivot" : [ -0.01289007607038162, -0.04226730060785711, 0.09261263599452096 ]
            }
         },
         "extras" : {
            "GOOGLE_camera_index" : {
               "cameraIndex" : 0,
               "nodeIndex" : 4
            },
            "GOOGLE_geometry_data" : {
               "stats" : {
                  "centroid" : [ 0.001454230958849197, -0.1970696412794378, 0.6069141046726153 ],
                  "radius" : 4.274431126501673,
                  "stdev" : 1.756280787435436
               },
               "visualCenterPoint" : [ -0.01289007607038363, -0.04226730060785534, 0.09308684478201061 ]
            }
         },
         "name" : "Scene",
         "nodes" : [ 1, 4, 6 ]
      }
   ],
   "textures" : [
      {
         "source" : 0
      }
   ]
}
